<svg width="254.99999999999997" height="55" xmlns="http://www.w3.org/2000/svg" class="iconLeft">
 <!---->
 <defs>
  <!---->
 </defs>
 <!---->
 <defs>
  <!---->
 </defs>
 <defs>
  <!---->
 </defs>
 <!---->
 <g>
  <title>Layer 1</title>
  <g transform="matrix(2.2982 0 0 2.2982 104.859 39.5677)" fill="#EDF2F4" id="6a9120a5-4914-44bd-b13e-3735caf199c8">
   <path id="svg_1" d="m-12.28313,-1.7647l0,0q0,-0.43 -0.35,-0.82l0,0l0,0q-0.35,-0.38 -0.87,-0.68l0,0l0,0q-0.52,-0.3 -1.44,-0.78l0,0l0,0q-1.08,-0.55 -1.73,-0.94l0,0l0,0q-0.65,-0.39 -1.1,-0.93l0,0l0,0q-0.46,-0.54 -0.46,-1.2l0,0l0,0q0,-0.7 0.57,-1.5l0,0l0,0q0.58,-0.81 1.41,-1.36l0,0l0,0q0.83,-0.55 1.53,-0.55l0,0l0,0q0.86,0 1.99,0.21l0,0l0,0q1.12,0.21 1.64,0.45l0,0l0,2.64l-0.38,0l0,0q-0.7,-1.15 -1.54,-1.77l0,0l0,0q-0.84,-0.62 -1.76,-0.62l0,0l0,0q-0.86,0 -1.35,0.52l0,0l0,0q-0.49,0.53 -0.49,1.37l0,0l0,0q0,0.46 0.37,0.86l0,0l0,0q0.36,0.4 0.9,0.72l0,0l0,0q0.54,0.32 1.46,0.78l0,0l0,0q1.05,0.54 1.69,0.92l0,0l0,0q0.64,0.39 1.08,0.91l0,0l0,0q0.44,0.53 0.44,1.17l0,0l0,0q0,0.7 -0.62,1.51l0,0l0,0q-0.61,0.8 -1.5,1.35l0,0l0,0q-0.89,0.56 -1.62,0.56l0,0l0,0q-0.89,0 -2.13,-0.21l0,0l0,0q-1.23,-0.21 -1.76,-0.45l0,0l0,-2.65l0.38,0l0,0q0.74,1.15 1.67,1.77l0,0l0,0q0.93,0.63 1.91,0.63l0,0l0,0q0.62,0 1.09,-0.27l0,0l0,0q0.47,-0.27 0.72,-0.71l0,0l0,0q0.25,-0.44 0.25,-0.93l0,0zm12.05,5.59l-0.23,0.49l-4.46,0l0,-0.37l1.92,-1.05l0,-3.15l-1.3,1.04l0,0q-0.45,0.11 -1.08,0.11l0,0l0,0q-0.92,0 -1.66,-0.48l0,0l0,0q-0.73,-0.48 -1.14,-1.31l0,0l0,0q-0.42,-0.83 -0.42,-1.82l0,0l0,0q0,-1.08 0.66,-2.02l0,0l0,0q0.66,-0.95 1.65,-1.51l0,0l0,0q0.98,-0.56 1.91,-0.56l0,0l0,0q0.51,0 0.97,0.23l0,0l0,0q0.45,0.23 0.8,0.65l0,0l0.69,-1.03l0.46,0l0,10.27l1.23,0.51zm-4.48,-3.98l0,0q0.42,0 0.82,-0.12l0,0l0,0q0.39,-0.13 0.89,-0.49l0,0l0,-3.31l0,0q-0.08,-0.71 -0.67,-1.17l0,0l0,0q-0.59,-0.47 -1.6,-0.47l0,0l0,0q-1.65,0 -1.65,2.33l0,0l0,0q0,1.37 0.58,2.3l0,0l0,0q0.57,0.93 1.63,0.93l0,0zm14.07,0.42l-0.23,0.49l-2.57,0l0,-1.51l-1.82,1.54l0,0q-0.29,0.11 -0.75,0.11l0,0l0,0q-0.94,0 -1.48,-0.58l0,0l0,0q-0.54,-0.58 -0.54,-1.57l0,0l0,-3.42l-1.24,-0.73l0,-0.36l2.32,-1.18l0.46,0l0,5.06l0,0q0,0.79 0.25,1.1l0,0l0,0q0.24,0.31 0.87,0.31l0,0l0,0q0.45,0 0.89,-0.17l0,0l0,0q0.44,-0.18 1.04,-0.7l0,0l0,-3.33l-1.24,-0.73l0,-0.36l2.32,-1.18l0.46,0l0,6.71l1.26,0.5zm8.74,0l-0.25,0.49l-2.55,0l0,-1.22l-1.58,1.25l0,0q-0.28,0.11 -0.7,0.11l0,0l0,0q-1.18,0 -1.7,-0.59l0,0l0,0q-0.53,-0.58 -0.53,-1.41l0,0l0,0q0,-0.5 0.37,-0.99l0,0l0,0q0.36,-0.48 1.05,-0.91l0,0l3.09,0l0,-1.03l0,0q0,-0.93 -0.5,-1.31l0,0l0,0q-0.49,-0.38 -1.36,-0.38l0,0l0,0q-0.86,0 -2.05,1.11l0,0l-0.42,-0.48l2.03,-1.61l0,0q0.55,-0.1 1.29,-0.1l0,0l0,0q1.21,0 1.88,0.61l0,0l0,0q0.67,0.61 0.67,1.76l0,0l0,4.21l1.26,0.49zm-4.69,-0.42l0,0q0.88,0 1.89,-0.82l0,0l0,-1.53l-2.52,0l0,0q-0.21,0.24 -0.29,0.48l0,0l0,0q-0.07,0.23 -0.07,0.53l0,0l0,0q0,0.54 0.27,0.94l0,0l0,0q0.27,0.4 0.72,0.4l0,0zm14.5,0.42l-0.25,0.49l-2.55,0l0,-1.01l-1.3,1.04l0,0q-0.45,0.11 -1.08,0.11l0,0l0,0q-0.92,0 -1.65,-0.47l0,0l0,0q-0.74,-0.48 -1.15,-1.31l0,0l0,0q-0.42,-0.82 -0.42,-1.82l0,0l0,0q0,-1.07 0.65,-2.03l0,0l0,0q0.64,-0.95 1.62,-1.51l0,0l0,0q0.97,-0.56 1.88,-0.56l0,0l0,0q0.81,0 1.45,0.48l0,0l0,-3.04l-1.24,-0.88l0,-0.37l2.32,-0.85l0.46,0l0,11.23l1.26,0.5zm-4.52,-0.43l0,0q0.44,0 0.83,-0.13l0,0l0,0q0.39,-0.12 0.89,-0.49l0,0l0,-3.29l0,0q-0.08,-0.71 -0.67,-1.17l0,0l0,0q-0.59,-0.47 -1.59,-0.47l0,0l0,0q-1.66,0 -1.66,2.34l0,0l0,0q0,1.36 0.58,2.29l0,0l0,0q0.57,0.93 1.64,0.93l0,0l-0.02,-0.01zm20.92,0.43l-0.25,0.49l-4.06,0l0,-0.36l1.26,-1.04l-1.12,-2.7l-4.76,0l-1.24,2.81l2.52,0.8l-0.23,0.49l-4.2,0l0,-0.36l1.27,-1.01l4.03,-9.18l1.26,-0.72l4.12,9.9l1.4,0.88zm-4.4,-4.16l-2.08,-5.04l-2.22,5.04l4.3,0zm9.48,4.81l0,0q-0.83,0 -1.47,-0.48l0,0l0,2.8l1.92,0.6l-0.24,0.49l-4.47,0l0,-0.36l1.25,-0.97l0,-7.67l-1.25,-0.71l0,-0.37l2.29,-1.17l0.44,1.86l2.06,-1.63l0,0q0.45,-0.11 1.02,-0.11l0,0l0,0q0.73,0 1.33,0.48l0,0l0,0q0.59,0.49 0.93,1.31l0,0l0,0q0.33,0.83 0.33,1.82l0,0l0,0q0,1.08 -0.64,2.03l0,0l0,0q-0.64,0.94 -1.62,1.5l0,0l0,0q-0.97,0.56 -1.88,0.56l0,0l0,0.02zm0.85,-6.47l0,0q-0.54,0 -1.05,0.22l0,0l0,0q-0.51,0.21 -1.27,0.91l0,0l0,2.38l0,0q0,0.8 0.59,1.33l0,0l0,0q0.59,0.53 1.69,0.53l0,0l0,0q0.83,0 1.24,-0.58l0,0l0,0q0.41,-0.59 0.41,-1.74l0,0l0,0q0,-1.29 -0.42,-2.18l0,0l0,0q-0.42,-0.89 -1.17,-0.89l0,0l-0.02,0.02zm9.37,6.47l0,0q-0.83,0 -1.47,-0.48l0,0l0,2.8l1.92,0.6l-0.24,0.49l-4.47,0l0,-0.36l1.25,-0.97l0,-7.67l-1.25,-0.71l0,-0.37l2.29,-1.17l0.44,1.86l2.06,-1.63l0,0q0.45,-0.11 1.02,-0.11l0,0l0,0q0.73,0 1.33,0.48l0,0l0,0q0.59,0.49 0.93,1.31l0,0l0,0q0.33,0.83 0.33,1.82l0,0l0,0q0,1.08 -0.64,2.03l0,0l0,0q-0.64,0.94 -1.62,1.5l0,0l0,0q-0.97,0.56 -1.88,0.56l0,0l0,0.02zm0.85,-6.47l0,0q-0.54,0 -1.05,0.22l0,0l0,0q-0.51,0.21 -1.27,0.91l0,0l0,2.38l0,0q0,0.8 0.59,1.33l0,0l0,0q0.59,0.53 1.69,0.53l0,0l0,0q0.83,0 1.24,-0.58l0,0l0,0q0.41,-0.59 0.41,-1.74l0,0l0,0q0,-1.29 -0.42,-2.18l0,0l0,0q-0.42,-0.89 -1.17,-0.89l0,0l-0.02,0.02z"/>
  </g>
  <g transform="matrix(0.603201 0 0 0.603201 37.0491 65.9154)" fill="#EF233C" id="0757c1ad-c753-476c-9d82-f9daed40ba3c">
   <path id="svg_2" d="m1.20495,-21.04444l-1.429,-4.396a40.874,40.874 0 0 0 3.611,-1.847l2.719,3.744l7.057,-5.126l-2.727,-3.754a40.727,40.727 0 0 0 2.864,-2.864l3.754,2.727l5.126,-7.056l-3.744,-2.72a40.874,40.874 0 0 0 1.847,-3.611l4.396,1.428l2.695,-8.295l-4.391,-1.426c0.275,-1.314 0.487,-2.651 0.633,-4.008l4.618,0l0,-8.723l-4.618,0a40.67,40.67 0 0 0 -0.633,-4.007l4.39,-1.427l-2.694,-8.295l-4.396,1.428a40.874,40.874 0 0 0 -1.847,-3.611l3.744,-2.72l-5.127,-7.056l-3.753,2.727a40.957,40.957 0 0 0 -2.864,-2.865l2.727,-3.752l-7.057,-5.127l-2.72,3.743a40.71,40.71 0 0 0 -3.61,-1.846l1.428,-4.396l-8.295,-2.695l-1.426,4.39a40.301,40.301 0 0 0 -4.008,-0.632l0,-4.616l-8.722,0l0,4.619a40.347,40.347 0 0 0 -4.008,0.632l-1.427,-4.39l-8.295,2.695l1.428,4.396a40.865,40.865 0 0 0 -3.611,1.846l-2.72,-3.743l-7.056,5.127l2.726,3.753a40.942,40.942 0 0 0 -2.864,2.864l-3.752,-2.727l-5.127,7.056l3.743,2.72a40.727,40.727 0 0 0 -1.846,3.611l-4.396,-1.428l-2.694,8.294l4.391,1.427a40.301,40.301 0 0 0 -0.632,4.008l-4.619,0l0,8.721l4.618,0c0.145,1.357 0.356,2.693 0.632,4.008l-4.39,1.427l2.695,8.295l4.396,-1.429a40.865,40.865 0 0 0 1.846,3.611l-3.743,2.72l5.127,7.056l3.752,-2.726a40.957,40.957 0 0 0 2.865,2.864l-2.726,3.753l7.056,5.126l2.72,-3.744a40.334,40.334 0 0 0 3.611,1.847l-1.428,4.396l8.295,2.695l1.427,-4.391c1.313,0.275 2.651,0.487 4.008,0.633l0,4.618l8.722,0l0,-4.618a40.69,40.69 0 0 0 4.008,-0.633l1.427,4.391l8.293,-2.696zm-11.022,-5.695a36.95,36.95 0 0 1 -7.069,0.689a36.938,36.938 0 0 1 -7.069,-0.689a36.226,36.226 0 0 1 -10.731,-3.949a36.81,36.81 0 0 1 -15.368,-16.558a36.283,36.283 0 0 1 -3.129,-11.002c-0.17,-1.431 -0.261,-2.886 -0.261,-4.361a36.938,36.938 0 0 1 0.689,-7.069a36.226,36.226 0 0 1 3.949,-10.731a36.773,36.773 0 0 1 7.069,-8.985a36.742,36.742 0 0 1 9.489,-6.383a36.275,36.275 0 0 1 11.001,-3.129c1.43,-0.17 2.885,-0.261 4.361,-0.261a36.925,36.925 0 0 1 7.069,0.689a36.275,36.275 0 0 1 10.731,3.949a36.71,36.71 0 0 1 8.985,7.069a36.742,36.742 0 0 1 6.383,9.488a36.226,36.226 0 0 1 3.129,11.001c0.17,1.431 0.261,2.886 0.261,4.362a36.925,36.925 0 0 1 -0.689,7.069a36.226,36.226 0 0 1 -3.949,10.731a36.71,36.71 0 0 1 -7.07,8.986a36.748,36.748 0 0 1 -9.488,6.382a36.164,36.164 0 0 1 -8.293,2.702z"/>
   <path id="svg_3" d="m-16.88705,-84.13244a5.83,5.83 0 0 0 -5.829,5.83c0,3.22 2.61,8.191 5.829,8.191c3.221,0 5.829,-4.971 5.829,-8.191c0,-3.22 -2.608,-5.83 -5.829,-5.83zm-14.826,6.328a5.048,5.048 0 0 0 -5.048,5.048c0,2.789 2.26,7.094 5.048,7.094c2.788,0 5.048,-4.305 5.048,-7.094a5.048,5.048 0 0 0 -5.048,-5.048zm29.653,0a5.048,5.048 0 0 0 -5.049,5.048c0,2.789 2.26,7.094 5.049,7.094c2.787,0 5.048,-4.305 5.048,-7.094a5.049,5.049 0 0 0 -5.048,-5.048zm9.245,16.631c-0.12,0.04 -0.246,0.089 -0.376,0.14c0.002,0.03 0.007,0.059 0.007,0.09l0,18.996c4.479,-5.133 7.328,-11.723 7.716,-18.959c-1.002,0.853 -2.189,1.399 -3.523,1.399c-1.469,0 -2.763,-0.66 -3.824,-1.666zm-5.05,-3.763c-1.163,1.104 -2.584,1.829 -4.195,1.829c-1.613,0 -3.032,-0.725 -4.197,-1.829c-0.168,0.058 -0.35,0.125 -0.531,0.201c0.082,0.343 0.126,0.7 0.126,1.075l0,30.803a31.53,31.53 0 0 0 12.27,-7.778l0,-20.98c-0.001,-1.677 -2.031,-2.833 -3.473,-3.321zm-29.119,0.201a8.577,8.577 0 0 0 -0.533,-0.201c-1.164,1.104 -2.584,1.829 -4.196,1.829c-1.612,0 -3.032,-0.725 -4.196,-1.829c-1.441,0.488 -3.472,1.644 -3.472,3.32l0,20.979a31.51,31.51 0 0 0 12.27,7.779l0,-30.802a4.6,4.6 0 0 1 0.127,-1.075zm-13.6,3.701a6.796,6.796 0 0 0 -0.375,-0.14c-1.06,1.007 -2.354,1.666 -3.824,1.666c-1.333,0 -2.52,-0.546 -3.521,-1.399c0.388,7.236 3.236,13.826 7.715,18.959l0,-18.996c0,-0.031 0.005,-0.06 0.005,-0.09zm28.541,-8.237c-1.344,1.274 -2.981,2.112 -4.844,2.112c-1.861,0 -3.502,-0.838 -4.845,-2.112c-1.666,0.562 -4.01,1.898 -4.01,3.834l0,33.017a31.358,31.358 0 0 0 17.71,0l0,-33.017c0.001,-1.936 -2.345,-3.272 -4.011,-3.834zm25.043,-3.16a4.563,4.563 0 0 0 -1.992,-0.471c-2.539,0 -4.6,2.06 -4.6,4.6c0,2.542 2.061,6.465 4.6,6.465c1.405,0 2.662,-1.201 3.506,-2.704c0.682,-1.214 1.096,-2.625 1.096,-3.761c0,-1.823 -1.07,-3.385 -2.61,-4.129zm-57.783,-0.47c-0.716,0 -1.386,0.178 -1.99,0.47c-1.54,0.744 -2.609,2.306 -2.609,4.13c0,1.137 0.414,2.547 1.096,3.762c0.844,1.502 2.099,2.703 3.504,2.703c2.541,0 4.601,-3.923 4.601,-6.465a4.602,4.602 0 0 0 -4.602,-4.6z"/>
  </g>
 </g>
</svg>