<svg data-v-fde0c5aa="" xmlns="http://www.w3.org/2000/svg" viewBox="0 0 300 300" class="iconLeft"><!----><defs data-v-fde0c5aa=""><!----></defs><rect data-v-fde0c5aa="" fill="#2B2D42" x="0" y="0" width="300px" height="300px" class="logo-background-square"/><defs data-v-fde0c5aa=""><!----></defs><g data-v-fde0c5aa="" id="4187eed7-dc13-4b03-b98f-8bae8f00633d" fill="#EDF2F4" transform="matrix(1.9577245963351397,0,0,1.9577245963351397,97.17605427522325,101.9280719395405)"><path d="M7.14 26.36L7.14 26.36Q7.14 25.93 6.79 25.54L6.79 25.54L6.79 25.54Q6.44 25.16 5.92 24.86L5.92 24.86L5.92 24.86Q5.40 24.56 4.48 24.08L4.48 24.08L4.48 24.08Q3.40 23.53 2.75 23.14L2.75 23.14L2.75 23.14Q2.10 22.75 1.65 22.21L1.65 22.21L1.65 22.21Q1.19 21.67 1.19 21.01L1.19 21.01L1.19 21.01Q1.19 20.31 1.76 19.51L1.76 19.51L1.76 19.51Q2.34 18.70 3.17 18.15L3.17 18.15L3.17 18.15Q4.00 17.60 4.70 17.60L4.70 17.60L4.70 17.60Q5.56 17.60 6.69 17.81L6.69 17.81L6.69 17.81Q7.81 18.02 8.33 18.26L8.33 18.26L8.33 20.90L7.95 20.90L7.95 20.90Q7.25 19.75 6.41 19.13L6.41 19.13L6.41 19.13Q5.57 18.51 4.65 18.51L4.65 18.51L4.65 18.51Q3.79 18.51 3.30 19.03L3.30 19.03L3.30 19.03Q2.81 19.56 2.81 20.40L2.81 20.40L2.81 20.40Q2.81 20.86 3.18 21.26L3.18 21.26L3.18 21.26Q3.54 21.66 4.08 21.98L4.08 21.98L4.08 21.98Q4.62 22.30 5.54 22.76L5.54 22.76L5.54 22.76Q6.59 23.30 7.23 23.68L7.23 23.68L7.23 23.68Q7.87 24.07 8.31 24.59L8.31 24.59L8.31 24.59Q8.75 25.12 8.75 25.76L8.75 25.76L8.75 25.76Q8.75 26.46 8.13 27.27L8.13 27.27L8.13 27.27Q7.52 28.07 6.63 28.62L6.63 28.62L6.63 28.62Q5.74 29.18 5.01 29.18L5.01 29.18L5.01 29.18Q4.12 29.18 2.88 28.97L2.88 28.97L2.88 28.97Q1.65 28.76 1.12 28.52L1.12 28.52L1.12 25.87L1.50 25.87L1.50 25.87Q2.24 27.02 3.17 27.64L3.17 27.64L3.17 27.64Q4.10 28.27 5.08 28.27L5.08 28.27L5.08 28.27Q5.70 28.27 6.17 28L6.17 28L6.17 28Q6.64 27.73 6.89 27.29L6.89 27.29L6.89 27.29Q7.14 26.85 7.14 26.36L7.14 26.36ZM19.19 31.95L18.96 32.44L14.50 32.44L14.50 32.07L16.42 31.02L16.42 27.87L15.12 28.91L15.12 28.91Q14.67 29.02 14.04 29.02L14.04 29.02L14.04 29.02Q13.12 29.02 12.38 28.54L12.38 28.54L12.38 28.54Q11.65 28.06 11.24 27.23L11.24 27.23L11.24 27.23Q10.82 26.40 10.82 25.41L10.82 25.41L10.82 25.41Q10.82 24.33 11.48 23.39L11.48 23.39L11.48 23.39Q12.14 22.44 13.13 21.88L13.13 21.88L13.13 21.88Q14.11 21.32 15.04 21.32L15.04 21.32L15.04 21.32Q15.55 21.32 16.01 21.55L16.01 21.55L16.01 21.55Q16.46 21.78 16.81 22.20L16.81 22.20L17.50 21.17L17.96 21.17L17.96 31.44L19.19 31.95ZM14.71 27.97L14.71 27.97Q15.13 27.97 15.53 27.85L15.53 27.85L15.53 27.85Q15.92 27.72 16.42 27.36L16.42 27.36L16.42 24.05L16.42 24.05Q16.34 23.34 15.75 22.88L15.75 22.88L15.75 22.88Q15.16 22.41 14.15 22.41L14.15 22.41L14.15 22.41Q12.50 22.41 12.50 24.74L12.50 24.74L12.50 24.74Q12.50 26.11 13.08 27.04L13.08 27.04L13.08 27.04Q13.65 27.97 14.71 27.97L14.71 27.97ZM28.78 28.39L28.55 28.88L25.98 28.88L25.98 27.37L24.16 28.91L24.16 28.91Q23.87 29.02 23.41 29.02L23.41 29.02L23.41 29.02Q22.47 29.02 21.93 28.44L21.93 28.44L21.93 28.44Q21.39 27.86 21.39 26.87L21.39 26.87L21.39 23.45L20.15 22.72L20.15 22.36L22.47 21.18L22.93 21.18L22.93 26.24L22.93 26.24Q22.93 27.03 23.18 27.34L23.18 27.34L23.18 27.34Q23.42 27.65 24.05 27.65L24.05 27.65L24.05 27.65Q24.50 27.65 24.94 27.48L24.94 27.48L24.94 27.48Q25.38 27.30 25.98 26.78L25.98 26.78L25.98 23.45L24.74 22.72L24.74 22.36L27.06 21.18L27.52 21.18L27.52 27.89L28.78 28.39ZM37.52 28.39L37.27 28.88L34.72 28.88L34.72 27.66L33.14 28.91L33.14 28.91Q32.86 29.02 32.44 29.02L32.44 29.02L32.44 29.02Q31.26 29.02 30.74 28.43L30.74 28.43L30.74 28.43Q30.21 27.85 30.21 27.02L30.21 27.02L30.21 27.02Q30.21 26.52 30.58 26.03L30.58 26.03L30.58 26.03Q30.94 25.55 31.63 25.12L31.63 25.12L34.72 25.12L34.72 24.09L34.72 24.09Q34.72 23.16 34.22 22.78L34.22 22.78L34.22 22.78Q33.73 22.40 32.86 22.40L32.86 22.40L32.86 22.40Q32.00 22.40 30.81 23.51L30.81 23.51L30.39 23.03L32.42 21.42L32.42 21.42Q32.97 21.32 33.71 21.32L33.71 21.32L33.71 21.32Q34.92 21.32 35.59 21.93L35.59 21.93L35.59 21.93Q36.26 22.54 36.26 23.69L36.26 23.69L36.26 27.90L37.52 28.39ZM32.83 27.97L32.83 27.97Q33.71 27.97 34.72 27.15L34.72 27.15L34.72 25.62L32.20 25.62L32.20 25.62Q31.99 25.86 31.91 26.10L31.91 26.10L31.91 26.10Q31.84 26.33 31.84 26.63L31.84 26.63L31.84 26.63Q31.84 27.17 32.11 27.57L32.11 27.57L32.11 27.57Q32.38 27.97 32.83 27.97L32.83 27.97ZM47.33 28.39L47.08 28.88L44.53 28.88L44.53 27.87L43.23 28.91L43.23 28.91Q42.78 29.02 42.15 29.02L42.15 29.02L42.15 29.02Q41.23 29.02 40.50 28.55L40.50 28.55L40.50 28.55Q39.76 28.07 39.35 27.24L39.35 27.24L39.35 27.24Q38.93 26.42 38.93 25.42L38.93 25.42L38.93 25.42Q38.93 24.35 39.58 23.39L39.58 23.39L39.58 23.39Q40.22 22.44 41.20 21.88L41.20 21.88L41.20 21.88Q42.17 21.32 43.08 21.32L43.08 21.32L43.08 21.32Q43.89 21.32 44.53 21.80L44.53 21.80L44.53 18.76L43.29 17.88L43.29 17.51L45.61 16.66L46.07 16.66L46.07 27.89L47.33 28.39ZM42.81 27.96L42.81 27.96Q43.25 27.96 43.64 27.83L43.64 27.83L43.64 27.83Q44.03 27.71 44.53 27.34L44.53 27.34L44.53 24.05L44.53 24.05Q44.45 23.34 43.86 22.88L43.86 22.88L43.86 22.88Q43.27 22.41 42.27 22.41L42.27 22.41L42.27 22.41Q40.61 22.41 40.61 24.75L40.61 24.75L40.61 24.75Q40.61 26.11 41.19 27.04L41.19 27.04L41.19 27.04Q41.76 27.97 42.83 27.97L42.83 27.97L42.81 27.96ZM63.73 28.39L63.48 28.88L59.42 28.88L59.42 28.52L60.68 27.48L59.56 24.78L54.80 24.78L53.56 27.59L56.08 28.39L55.85 28.88L51.65 28.88L51.65 28.52L52.92 27.51L56.95 18.33L58.21 17.61L62.33 27.51L63.73 28.39ZM59.33 24.23L57.25 19.19L55.03 24.23L59.33 24.23ZM68.81 29.04L68.81 29.04Q67.98 29.04 67.34 28.56L67.34 28.56L67.34 31.36L69.26 31.96L69.02 32.45L64.55 32.45L64.55 32.09L65.80 31.12L65.80 23.45L64.55 22.74L64.55 22.37L66.84 21.20L67.28 23.06L69.34 21.43L69.34 21.43Q69.79 21.32 70.36 21.32L70.36 21.32L70.36 21.32Q71.09 21.32 71.69 21.80L71.69 21.80L71.69 21.80Q72.28 22.29 72.62 23.11L72.62 23.11L72.62 23.11Q72.95 23.94 72.95 24.93L72.95 24.93L72.95 24.93Q72.95 26.01 72.31 26.96L72.31 26.96L72.31 26.96Q71.67 27.90 70.69 28.46L70.69 28.46L70.69 28.46Q69.72 29.02 68.81 29.02L68.81 29.02L68.81 29.04ZM69.66 22.57L69.66 22.57Q69.12 22.57 68.61 22.79L68.61 22.79L68.61 22.79Q68.10 23.00 67.34 23.70L67.34 23.70L67.34 26.08L67.34 26.08Q67.34 26.88 67.93 27.41L67.93 27.41L67.93 27.41Q68.52 27.94 69.62 27.94L69.62 27.94L69.62 27.94Q70.45 27.94 70.86 27.36L70.86 27.36L70.86 27.36Q71.27 26.77 71.27 25.62L71.27 25.62L71.27 25.62Q71.27 24.33 70.85 23.44L70.85 23.44L70.85 23.44Q70.43 22.55 69.68 22.55L69.68 22.55L69.66 22.57ZM79.03 29.04L79.03 29.04Q78.20 29.04 77.56 28.56L77.56 28.56L77.56 31.36L79.48 31.96L79.24 32.45L74.77 32.45L74.77 32.09L76.02 31.12L76.02 23.45L74.77 22.74L74.77 22.37L77.06 21.20L77.50 23.06L79.56 21.43L79.56 21.43Q80.01 21.32 80.58 21.32L80.58 21.32L80.58 21.32Q81.31 21.32 81.91 21.80L81.91 21.80L81.91 21.80Q82.50 22.29 82.84 23.11L82.84 23.11L82.84 23.11Q83.17 23.94 83.17 24.93L83.17 24.93L83.17 24.93Q83.17 26.01 82.53 26.96L82.53 26.96L82.53 26.96Q81.89 27.90 80.91 28.46L80.91 28.46L80.91 28.46Q79.94 29.02 79.03 29.02L79.03 29.02L79.03 29.04ZM79.88 22.57L79.88 22.57Q79.34 22.57 78.83 22.79L78.83 22.79L78.83 22.79Q78.32 23.00 77.56 23.70L77.56 23.70L77.56 26.08L77.56 26.08Q77.56 26.88 78.15 27.41L78.15 27.41L78.15 27.41Q78.74 27.94 79.84 27.94L79.84 27.94L79.84 27.94Q80.67 27.94 81.08 27.36L81.08 27.36L81.08 27.36Q81.49 26.77 81.49 25.62L81.49 25.62L81.49 25.62Q81.49 24.33 81.07 23.44L81.07 23.44L81.07 23.44Q80.65 22.55 79.90 22.55L79.90 22.55L79.88 22.57Z"/></g><defs data-v-fde0c5aa=""><!----></defs><g data-v-fde0c5aa="" id="f142768b-8335-4a4d-a0a9-57aa867f72f7" stroke="none" fill="#EF233C" transform="matrix(0.5138375776801825,0,0,0.5138375776801825,37.486306468061535,124.37234738296499)"><path d="M68.103 91.439l-1.429-4.396a40.874 40.874 0 0 0 3.611-1.847l2.719 3.744 7.057-5.126-2.727-3.754a40.727 40.727 0 0 0 2.864-2.864l3.754 2.727 5.126-7.056-3.744-2.72a40.874 40.874 0 0 0 1.847-3.611l4.396 1.428 2.695-8.295-4.391-1.426c.275-1.314.487-2.651.633-4.008h4.618v-8.723h-4.618a40.67 40.67 0 0 0-.633-4.007l4.39-1.427-2.694-8.295-4.396 1.428a40.874 40.874 0 0 0-1.847-3.611l3.744-2.72-5.127-7.056-3.753 2.727a40.957 40.957 0 0 0-2.864-2.865l2.727-3.752-7.057-5.127-2.72 3.743a40.71 40.71 0 0 0-3.61-1.846l1.428-4.396-8.295-2.695-1.426 4.39a40.301 40.301 0 0 0-4.008-.632V4.755h-8.722v4.619a40.347 40.347 0 0 0-4.008.632l-1.427-4.39-8.295 2.695 1.428 4.396a40.865 40.865 0 0 0-3.611 1.846l-2.72-3.743-7.056 5.127 2.726 3.753a40.942 40.942 0 0 0-2.864 2.864l-3.752-2.727-5.127 7.056 3.743 2.72a40.727 40.727 0 0 0-1.846 3.611l-4.396-1.428-2.694 8.294 4.391 1.427a40.301 40.301 0 0 0-.632 4.008H4.892v8.721H9.51c.145 1.357.356 2.693.632 4.008l-4.39 1.427 2.695 8.295 4.396-1.429a40.865 40.865 0 0 0 1.846 3.611l-3.743 2.72 5.127 7.056 3.752-2.726a40.957 40.957 0 0 0 2.865 2.864l-2.726 3.753 7.056 5.126 2.72-3.744a40.334 40.334 0 0 0 3.611 1.847l-1.428 4.396 8.295 2.695 1.427-4.391c1.313.275 2.651.487 4.008.633v4.618h8.722v-4.618a40.69 40.69 0 0 0 4.008-.633l1.427 4.391 8.293-2.696zm-11.022-5.695a36.95 36.95 0 0 1-7.069.689 36.938 36.938 0 0 1-7.069-.689 36.226 36.226 0 0 1-10.731-3.949 36.81 36.81 0 0 1-15.368-16.558 36.283 36.283 0 0 1-3.129-11.002c-.17-1.431-.261-2.886-.261-4.361a36.938 36.938 0 0 1 .689-7.069 36.226 36.226 0 0 1 3.949-10.731 36.773 36.773 0 0 1 7.069-8.985 36.742 36.742 0 0 1 9.489-6.383 36.275 36.275 0 0 1 11.001-3.129c1.43-.17 2.885-.261 4.361-.261a36.925 36.925 0 0 1 7.069.689 36.275 36.275 0 0 1 10.731 3.949 36.71 36.71 0 0 1 8.985 7.069 36.742 36.742 0 0 1 6.383 9.488 36.226 36.226 0 0 1 3.129 11.001c.17 1.431.261 2.886.261 4.362a36.925 36.925 0 0 1-.689 7.069 36.226 36.226 0 0 1-3.949 10.731 36.71 36.71 0 0 1-7.07 8.986 36.748 36.748 0 0 1-9.488 6.382 36.164 36.164 0 0 1-8.293 2.702z"/><path d="M50.011 28.351a5.83 5.83 0 0 0-5.829 5.83c0 3.22 2.61 8.191 5.829 8.191 3.221 0 5.829-4.971 5.829-8.191 0-3.22-2.608-5.83-5.829-5.83zM35.185 34.679a5.048 5.048 0 0 0-5.048 5.048c0 2.789 2.26 7.094 5.048 7.094 2.788 0 5.048-4.305 5.048-7.094a5.048 5.048 0 0 0-5.048-5.048zM64.838 34.679a5.048 5.048 0 0 0-5.049 5.048c0 2.789 2.26 7.094 5.049 7.094 2.787 0 5.048-4.305 5.048-7.094a5.049 5.049 0 0 0-5.048-5.048zM74.083 51.31c-.12.04-.246.089-.376.14.002.03.007.059.007.09v18.996c4.479-5.133 7.328-11.723 7.716-18.959-1.002.853-2.189 1.399-3.523 1.399-1.469 0-2.763-.66-3.824-1.666zM69.033 47.547c-1.163 1.104-2.584 1.829-4.195 1.829-1.613 0-3.032-.725-4.197-1.829-.168.058-.35.125-.531.201.082.343.126.7.126 1.075v30.803a31.53 31.53 0 0 0 12.27-7.778v-20.98c-.001-1.677-2.031-2.833-3.473-3.321zM39.914 47.748a8.577 8.577 0 0 0-.533-.201c-1.164 1.104-2.584 1.829-4.196 1.829-1.612 0-3.032-.725-4.196-1.829-1.441.488-3.472 1.644-3.472 3.32v20.979a31.51 31.51 0 0 0 12.27 7.779V48.823a4.6 4.6 0 0 1 .127-1.075zM26.314 51.449a6.796 6.796 0 0 0-.375-.14c-1.06 1.007-2.354 1.666-3.824 1.666-1.333 0-2.52-.546-3.521-1.399.388 7.236 3.236 13.826 7.715 18.959V51.539c0-.031.005-.06.005-.09zM54.855 43.212c-1.344 1.274-2.981 2.112-4.844 2.112-1.861 0-3.502-.838-4.845-2.112-1.666.562-4.01 1.898-4.01 3.834v33.017a31.358 31.358 0 0 0 17.71 0V47.046c.001-1.936-2.345-3.272-4.011-3.834zM79.898 40.052a4.563 4.563 0 0 0-1.992-.471c-2.539 0-4.6 2.06-4.6 4.6 0 2.542 2.061 6.465 4.6 6.465 1.405 0 2.662-1.201 3.506-2.704.682-1.214 1.096-2.625 1.096-3.761 0-1.823-1.07-3.385-2.61-4.129zM22.115 39.582c-.716 0-1.386.178-1.99.47-1.54.744-2.609 2.306-2.609 4.13 0 1.137.414 2.547 1.096 3.762.844 1.502 2.099 2.703 3.504 2.703 2.541 0 4.601-3.923 4.601-6.465a4.602 4.602 0 0 0-4.602-4.6z"/></g><!----></svg>