<svg data-v-fde0c5aa="" xmlns="http://www.w3.org/2000/svg" viewBox="0 0 300 300" class="icon"><!----><defs data-v-fde0c5aa=""><!----></defs><rect data-v-fde0c5aa="" fill="#2B2D42" x="0" y="0" width="300px" height="300px" class="logo-background-square"/><!----><defs data-v-fde0c5aa=""><!----></defs><g data-v-fde0c5aa="" id="86d751a1-c5b9-4b54-966c-95500bdd1e91" fill="#EF233C" stroke="none" transform="matrix(2.4379429078895316,0,0,2.4379429078895316,28.07359211101783,28.407581193984853)"><path d="M68.103 91.439l-1.429-4.396a40.874 40.874 0 0 0 3.611-1.847l2.719 3.744 7.057-5.126-2.727-3.754a40.727 40.727 0 0 0 2.864-2.864l3.754 2.727 5.126-7.056-3.744-2.72a40.874 40.874 0 0 0 1.847-3.611l4.396 1.428 2.695-8.295-4.391-1.426c.275-1.314.487-2.651.633-4.008h4.618v-8.723h-4.618a40.67 40.67 0 0 0-.633-4.007l4.39-1.427-2.694-8.295-4.396 1.428a40.874 40.874 0 0 0-1.847-3.611l3.744-2.72-5.127-7.056-3.753 2.727a40.957 40.957 0 0 0-2.864-2.865l2.727-3.752-7.057-5.127-2.72 3.743a40.71 40.71 0 0 0-3.61-1.846l1.428-4.396-8.295-2.695-1.426 4.39a40.301 40.301 0 0 0-4.008-.632V4.755h-8.722v4.619a40.347 40.347 0 0 0-4.008.632l-1.427-4.39-8.295 2.695 1.428 4.396a40.865 40.865 0 0 0-3.611 1.846l-2.72-3.743-7.056 5.127 2.726 3.753a40.942 40.942 0 0 0-2.864 2.864l-3.752-2.727-5.127 7.056 3.743 2.72a40.727 40.727 0 0 0-1.846 3.611l-4.396-1.428-2.694 8.294 4.391 1.427a40.301 40.301 0 0 0-.632 4.008H4.892v8.721H9.51c.145 1.357.356 2.693.632 4.008l-4.39 1.427 2.695 8.295 4.396-1.429a40.865 40.865 0 0 0 1.846 3.611l-3.743 2.72 5.127 7.056 3.752-2.726a40.957 40.957 0 0 0 2.865 2.864l-2.726 3.753 7.056 5.126 2.72-3.744a40.334 40.334 0 0 0 3.611 1.847l-1.428 4.396 8.295 2.695 1.427-4.391c1.313.275 2.651.487 4.008.633v4.618h8.722v-4.618a40.69 40.69 0 0 0 4.008-.633l1.427 4.391 8.293-2.696zm-11.022-5.695a36.95 36.95 0 0 1-7.069.689 36.938 36.938 0 0 1-7.069-.689 36.226 36.226 0 0 1-10.731-3.949 36.81 36.81 0 0 1-15.368-16.558 36.283 36.283 0 0 1-3.129-11.002c-.17-1.431-.261-2.886-.261-4.361a36.938 36.938 0 0 1 .689-7.069 36.226 36.226 0 0 1 3.949-10.731 36.773 36.773 0 0 1 7.069-8.985 36.742 36.742 0 0 1 9.489-6.383 36.275 36.275 0 0 1 11.001-3.129c1.43-.17 2.885-.261 4.361-.261a36.925 36.925 0 0 1 7.069.689 36.275 36.275 0 0 1 10.731 3.949 36.71 36.71 0 0 1 8.985 7.069 36.742 36.742 0 0 1 6.383 9.488 36.226 36.226 0 0 1 3.129 11.001c.17 1.431.261 2.886.261 4.362a36.925 36.925 0 0 1-.689 7.069 36.226 36.226 0 0 1-3.949 10.731 36.71 36.71 0 0 1-7.07 8.986 36.748 36.748 0 0 1-9.488 6.382 36.164 36.164 0 0 1-8.293 2.702z"/><path d="M50.011 28.351a5.83 5.83 0 0 0-5.829 5.83c0 3.22 2.61 8.191 5.829 8.191 3.221 0 5.829-4.971 5.829-8.191 0-3.22-2.608-5.83-5.829-5.83zM35.185 34.679a5.048 5.048 0 0 0-5.048 5.048c0 2.789 2.26 7.094 5.048 7.094 2.788 0 5.048-4.305 5.048-7.094a5.048 5.048 0 0 0-5.048-5.048zM64.838 34.679a5.048 5.048 0 0 0-5.049 5.048c0 2.789 2.26 7.094 5.049 7.094 2.787 0 5.048-4.305 5.048-7.094a5.049 5.049 0 0 0-5.048-5.048zM74.083 51.31c-.12.04-.246.089-.376.14.002.03.007.059.007.09v18.996c4.479-5.133 7.328-11.723 7.716-18.959-1.002.853-2.189 1.399-3.523 1.399-1.469 0-2.763-.66-3.824-1.666zM69.033 47.547c-1.163 1.104-2.584 1.829-4.195 1.829-1.613 0-3.032-.725-4.197-1.829-.168.058-.35.125-.531.201.082.343.126.7.126 1.075v30.803a31.53 31.53 0 0 0 12.27-7.778v-20.98c-.001-1.677-2.031-2.833-3.473-3.321zM39.914 47.748a8.577 8.577 0 0 0-.533-.201c-1.164 1.104-2.584 1.829-4.196 1.829-1.612 0-3.032-.725-4.196-1.829-1.441.488-3.472 1.644-3.472 3.32v20.979a31.51 31.51 0 0 0 12.27 7.779V48.823a4.6 4.6 0 0 1 .127-1.075zM26.314 51.449a6.796 6.796 0 0 0-.375-.14c-1.06 1.007-2.354 1.666-3.824 1.666-1.333 0-2.52-.546-3.521-1.399.388 7.236 3.236 13.826 7.715 18.959V51.539c0-.031.005-.06.005-.09zM54.855 43.212c-1.344 1.274-2.981 2.112-4.844 2.112-1.861 0-3.502-.838-4.845-2.112-1.666.562-4.01 1.898-4.01 3.834v33.017a31.358 31.358 0 0 0 17.71 0V47.046c.001-1.936-2.345-3.272-4.011-3.834zM79.898 40.052a4.563 4.563 0 0 0-1.992-.471c-2.539 0-4.6 2.06-4.6 4.6 0 2.542 2.061 6.465 4.6 6.465 1.405 0 2.662-1.201 3.506-2.704.682-1.214 1.096-2.625 1.096-3.761 0-1.823-1.07-3.385-2.61-4.129zM22.115 39.582c-.716 0-1.386.178-1.99.47-1.54.744-2.609 2.306-2.609 4.13 0 1.137.414 2.547 1.096 3.762.844 1.502 2.099 2.703 3.504 2.703 2.541 0 4.601-3.923 4.601-6.465a4.602 4.602 0 0 0-4.602-4.6z"/></g><!----></svg>